<?xml version="1.0" encoding="UTF-8"?>
<svg width="10px" height="16px" viewBox="0 0 10 16" version="1.1" xmlns="http://www.w3.org/2000/svg" xmlns:xlink="http://www.w3.org/1999/xlink">
    <title>Vector Copy 10</title>
    <g id="Symbols" stroke="none" stroke-width="1" fill="none" fill-rule="evenodd">
        <g id="Continent---375" transform="translate(-30.000000, -622.000000)" fill="#FFFFFF">
            <g id="Group-3" transform="translate(30.000000, 617.086898)">
                <path d="M4.07673895e-13,10.9420946 C4.07673895e-13,8.05159229 2.24307187,5.7 4.99983907,5.7 C7.75692813,5.7 10,8.05159229 10,10.9420946 C10,14.4394595 6.02207989,19.4622225 4.99565483,20.7 C3.96279249,19.4955259 4.07673895e-13,14.6330567 4.07673895e-13,10.9420946 Z M2.60645635,10.4541209 C2.60645635,9.06530052 3.68759825,7.93550684 5.01625372,7.93550684 C6.3449092,7.93550684 7.42605109,9.06530052 7.42605109,10.4541209 C7.42605109,11.8429412 6.3449092,12.9727349 5.01625372,12.9727349 C3.68759825,12.9727349 2.60645635,11.8429412 2.60645635,10.4541209 Z" id="Vector-Copy-10"></path>
            </g>
        </g>
    </g>
</svg>