<?xml version="1.0" encoding="UTF-8"?>
<svg width="26px" height="26px" viewBox="0 0 26 26" version="1.1" xmlns="http://www.w3.org/2000/svg" xmlns:xlink="http://www.w3.org/1999/xlink">
    <title>Shape</title>
    <g id="1.0---Homepage" stroke="none" stroke-width="1" fill="none" fill-rule="evenodd">
        <g transform="translate(-175.000000, -6577.000000)" fill="#283A2C" fill-rule="nonzero" id="Footer---375">
            <g transform="translate(0.000000, 5589.000000)">
                <g id="Group-12-Copy" transform="translate(-317.000000, 0.000000)">
                    <g transform="translate(405.000000, 948.000000)">
                        <path d="M111.702701,59.3091709 L108.492666,57.1841852 C107.556934,56.5651153 106.328908,56.5339181 105.389274,57.0902686 L102.710506,58.3453068 C102.445198,58.5016179 102.122341,58.511042 101.846954,58.3693546 C101.701945,58.2946113 101.545231,58.2172682 101.379738,58.1350505 C99.5635473,57.2361806 96.8194275,55.8774766 94.7892991,51.4029501 C94.6667241,51.1328992 94.6842813,50.8264515 94.8510744,50.5560756 L96.0504888,48.1529146 C96.6100421,47.2559945 96.631826,46.1286699 96.1077121,45.2109516 L93.9735413,41.4754094 C93.2072036,40.1339288 91.5184645,39.6181998 90.1298229,40.300964 C88.1224538,41.2875761 87.0722752,42.9465533 87.007899,45.2317498 C86.9961942,45.4732033 86.8105434,50.0588699 89.1583264,54.9314859 C93.1132402,63.1396048 101.075414,65.4618479 107.052653,65.9642532 C107.097196,65.9688028 107.421354,66 107.885643,66 C109.088309,66 111.231909,65.7910436 111.900056,64.3699452 L112.606244,63.1662524 C113.37876,61.8504446 112.981773,60.1560455 111.702701,59.3091709 Z M112.045716,62.8373817 L111.325547,64.0670722 C110.70812,65.3793053 108.079097,65.4147271 107.113128,65.3172358 C98.6668314,64.607499 92.8267984,61.025993 89.75527,54.6731339 C87.4575574,49.9201072 87.6552381,45.3068181 87.657514,45.2606722 C87.657514,45.2583974 87.657514,45.2557977 87.6578392,45.2535229 C87.7147374,43.197756 88.6173057,41.7685333 90.416915,40.884287 C90.7400969,40.7253762 91.0840872,40.6499829 91.4235258,40.6499829 C92.2201008,40.6499829 92.9909904,41.0659458 93.409111,41.7977807 L95.5432818,45.5333229 C95.9487222,46.2433847 95.9314902,47.115282 95.4837825,47.8357429 L94.284043,50.2385788 C94.0167839,50.6672157 93.9839455,51.202768 94.1969074,51.6713762 C96.3222997,56.3568089 99.3073427,57.8344523 101.090695,58.7173986 C101.253262,58.7979915 101.406399,58.8737097 101.549132,58.9468282 C102.024151,59.1912064 102.582404,59.1752829 103.013205,58.9192057 L105.691973,57.6641675 C106.445305,57.2189571 107.403146,57.243005 108.133069,57.725912 L111.343429,59.8508977 C112.335084,60.5076642 112.642984,61.8192474 112.045716,62.8373817 Z" id="Shape"></path>
                    </g>
                </g>
            </g>
        </g>
    </g>
</svg>