<?xml version="1.0" encoding="UTF-8"?>
<svg width="32px" height="23px" viewBox="0 0 32 23" version="1.1" xmlns="http://www.w3.org/2000/svg" xmlns:xlink="http://www.w3.org/1999/xlink">
    <title>noun_Mail_742727</title>
    <defs>
        <filter id="filter-1">
            <feColorMatrix in="SourceGraphic" type="matrix" values="0 0 0 0 0.158507 0 0 0 0 0.229167 0 0 0 0 0.174052 0 0 0 1.000000 0"></feColorMatrix>
        </filter>
    </defs>
    <g id="1.0---Homepage" stroke="none" stroke-width="1" fill="none" fill-rule="evenodd">
        <g transform="translate(-172.000000, -6808.000000)" id="Footer---375">
            <g transform="translate(0.000000, 5589.000000)">
                <g id="Group-3-Copy-2" transform="translate(-317.000000, 0.000000)">
                    <g transform="translate(405.000000, 1178.000000)" filter="url(#filter-1)" id="noun_Mail_742727">
                        <g transform="translate(84.850000, 41.850000)">
                            <path d="M30.56,0.08 C30.52,0.04 30.44,0.04 30.4,0.04 L0.76,0.04 C0.72,0.04 0.64,0.04 0.6,0.08 C0.52,0.12 0.44,0.2 0.4,0.28 C0.36,0.32 0.36,0.4 0.36,0.44 L0.36,21.12 C0.36,21.12 0.36,21.16 0.36,21.16 C0.36,21.2 0.36,21.2 0.36,21.24 C0.36,21.28 0.36,21.28 0.4,21.32 C0.4,21.32 0.4,21.36 0.4,21.36 C0.4,21.36 0.4,21.36 0.44,21.36 C0.48,21.4 0.52,21.44 0.52,21.44 C0.52,21.44 0.56,21.44 0.56,21.48 C0.6,21.52 0.68,21.52 0.72,21.52 L30.36,21.52 C30.6,21.52 30.76,21.36 30.76,21.12 L30.76,0.44 C30.76,0.4 30.76,0.32 30.72,0.28 C30.76,0.2 30.68,0.12 30.56,0.08 Z M1.16,1.4 L12.32,12.56 L1.16,20.36 L1.16,1.4 Z M17.6,12.72 C16.48,13.84 14.72,13.84 13.6,12.72 L1.76,0.84 L29.48,0.84 L17.6,12.72 Z M12.92,13.16 L13.04,13.28 C13.76,14 14.68,14.36 15.6,14.36 C16.52,14.36 17.44,14 18.16,13.28 L18.28,13.16 L29.12,20.72 L2.04,20.72 L12.92,13.16 Z M30.04,20.36 L18.88,12.56 L30.04,1.4 L30.04,20.36 Z" id="Shape" fill="#000000" fill-rule="nonzero"></path>
                        </g>
                    </g>
                </g>
            </g>
        </g>
    </g>
</svg>