<svg id="south-america" xmlns="http://www.w3.org/2000/svg" viewBox="0 0 42 42" style="fill:none;stroke:#fff">
    <g id="Layer_2" data-name="Layer 2">
        <g id="Outline">
            <g id="Latin-america-icon">
                <path d="M21.72656,36.249a.46183.46183,0,0,1-.16407-.0332.3293.3293,0,0,1-.0703-.02637.78069.78069,0,0,1-.43457-.13574h-.001a.32726.32726,0,0,1-.2832-.12891.10055.10055,0,0,0-.03223-.00292.28841.28841,0,0,1-.16894-.05079l-.083-.05566a.34482.34482,0,0,1-.2002-.14355h-.0039a.39855.39855,0,0,1-.40528-.19922l-.01758-.01661a.352.352,0,0,1-.252-.31347.41845.41845,0,0,1-.03613-.085.32558.32558,0,0,1-.1582-.13477.45183.45183,0,0,1-.23633-.25l-.11621-.03906-.04786-.22852c-.07617-.04394-.15722-.09179-.21582-.13281l-.11035-.02539a.36389.36389,0,0,1-.22168-.24316l-.01953-.0625a1.17154,1.17154,0,0,0-.18652-.33887,1.73378,1.73378,0,0,1-.2207-.36621.61065.61065,0,0,1-.03907-.18067l-.10254-.09179.05371-.294.16309-.082a.08778.08778,0,0,0,.04-.0332l-.01172-.00391a.30889.30889,0,0,1-.11426.04395.345.345,0,0,1-.373-.22559.38209.38209,0,0,1,.05468-.41016v-.0996a.48361.48361,0,0,1,.08789-.2129l.00293-.02343-.03711-.02832a.331.331,0,0,1-.07714-.08692l-.16895-.25683.207-.10547.00293-.05274a.2293.2293,0,0,1,.01563-.04785A.41018.41018,0,0,1,17.6416,31a.35883.35883,0,0,1-.17383-.25684,1.82838,1.82838,0,0,0-.04394-.19824,1.64764,1.64764,0,0,1-.06543-.39551l-.01465-.11718.00977-.0127a1.09157,1.09157,0,0,1-.10059-.88281.139.139,0,0,0-.0332-.13086,2.65981,2.65981,0,0,1-.31055-.61231l-.05762-.1416a.34691.34691,0,0,1,.0127-.334.30555.30555,0,0,1,.08594-.084l.001-.0332a2.71435,2.71435,0,0,1,.083-.70605.33915.33915,0,0,0,.002-.13184.91234.91234,0,0,1,.03028-.501c-.01172-.06836-.02246-.13867-.03321-.208a2.33464,2.33464,0,0,0-.18261-.71,1.3891,1.3891,0,0,1-.09864-.28907.5002.5002,0,0,1,.03516-.39355c.02344-.03906.03613-.07422-.02051-.15235a.52115.52115,0,0,1-.06738-.52246.725.725,0,0,0,.02441-.24707,1.6119,1.6119,0,0,1,.01367-.27441.493.493,0,0,0-.001-.06445.72386.72386,0,0,1,.00683-.19141.48393.48393,0,0,0-.01855-.2666.48066.48066,0,0,1,.01562-.39649,1.72671,1.72671,0,0,1-.07812-.6123.378.378,0,0,1-.08984-.19141.49211.49211,0,0,1,.11425-.36133,4.238,4.238,0,0,0-.05566-.60351l-.0293-.22168a3.92233,3.92233,0,0,0-.08008-.41406,4.05182,4.05182,0,0,1-.09375-.51758l-.06054-.01172a1.95627,1.95627,0,0,1-.39356-.36816.78143.78143,0,0,0-.31836-.22461,5.01992,5.01992,0,0,1-1.03271-.582,1.87414,1.87414,0,0,1-.68115-.7959l-.05713-.08594.022-.10254c.02588-.11719-.01855-.18945-.14209-.35352a1.89455,1.89455,0,0,1-.14062-.2041.48138.48138,0,0,1-.085-.18554,4.9848,4.9848,0,0,1-.55908-1.05469c-.05273-.12305-.10547-.24707-.1626-.36817a1.03525,1.03525,0,0,0-.0791-.13476,2.83836,2.83836,0,0,1-.26855-.45508.69179.69179,0,0,0-.37842-.34375.39869.39869,0,0,1-.26514-.26367.32643.32643,0,0,1,.05713-.25488.79812.79812,0,0,1,.25342-1.126.5852.5852,0,0,1-.02148-.06445c.00146.01855-.022.00488-.04053-.00489a.34248.34248,0,0,1-.15772-.47656.49447.49447,0,0,0-.0122-.165l-.0166-.11035A.3172.3172,0,0,1,12.064,11.71a.21287.21287,0,0,1,.05909-.23633c.07715-.07812.07373-.11718.061-.165a.3457.3457,0,0,1,.24512-.42089l.16455-.06934a.29685.29685,0,0,1,.01416-.12012.32114.32114,0,0,1,.12549-.16406.36872.36872,0,0,1,.061-.18359.3569.3569,0,0,1,.27149-.16309c.05517-.00488.0747-.02051.15527-.18262.02-.03906.04-.07715.06006-.11328a.5506.5506,0,0,1-.01465-.33789,1.20932,1.20932,0,0,0,.001-.29883.51841.51841,0,0,1,.02881-.35644c-.00489-.03125-.00928-.0625-.01368-.09278-.0205-.15429-.03564-.24511-.10595-.30468a.43245.43245,0,0,1-.16114-.33008l-.03173-.18652a.48121.48121,0,0,1,.33545-.625c.02783-.01075.0581-.02247.08935-.03809A1.25259,1.25259,0,0,1,13.79,7.21875a1.1799,1.1799,0,0,0,.24316-.05469.99092.99092,0,0,1,.355-.707.32845.32845,0,0,1,.34375-.09765c.00684-.002.04932-.02442.07715-.03907a.58468.58468,0,0,1,.37451-.09179,1.3464,1.3464,0,0,1,.28418-.17774.50557.50557,0,0,1,.39258-.28418.40542.40542,0,0,1,.44336.1709A.33893.33893,0,0,1,16.5,5.85645a.35162.35162,0,0,1,.26855.09277.36222.36222,0,0,1,.10938.21484.53883.53883,0,0,1,.52148.44336c.03711-.00683.07422-.01269.11036-.01953.07617-.01367.15234-.02734.22949-.03809a.53673.53673,0,0,1,.501.18555.17644.17644,0,0,0,.16993.04395.68664.68664,0,0,1,.60156-.25l.01367-.001a.58573.58573,0,0,1,.56445.35645.35321.35321,0,0,1,.18653.03125,1.93859,1.93859,0,0,1,.33984.18652.35556.35556,0,0,1,.15527.34668.79547.79547,0,0,1,.36133.18359l.0586.04492a.85384.85384,0,0,1,.40234.50586c.01367.07715.03809.09766.14063.17481l-.0586.26953.14844-.20117a.8977.8977,0,0,1,.19629.17969,1.15393,1.15393,0,0,1,.15429.02539.32793.32793,0,0,0,.127.01464,1.19035,1.19035,0,0,1,.80859.04786.37345.37345,0,0,1,.20508.24414.43567.43567,0,0,1-.09473.36718.3039.3039,0,0,0-.0664.21485c.0039.09179.01367.13183.03711.15918a.42112.42112,0,0,1,.07714.44726.55571.55571,0,0,0-.02832.11133.70028.70028,0,0,1,.09278.01953c.12109-.21484.23633-.43164.34961-.65039l.001-.00976-.001-.06153.04687-.2998.28613.10351a.585.585,0,0,1,.43067.627,1.04868,1.04868,0,0,0,.10449.38574l.03125.07812c-.001-.00586.03125.03028.10059.08789a.69085.69085,0,0,1,.14258.7002.42617.42617,0,0,1,.14062.126.913.913,0,0,1,.16992.02148.4148.4148,0,0,1,.26856.18457l.00879.0166.09082-.01855a.35455.35455,0,0,1,.209.01562l.19141.08594c.14258.06348.28418.127.42382.19531l.07325-.248.30761.334a1.85754,1.85754,0,0,1,.24707.43359h0a.76864.76864,0,0,1,.57715.084.812.812,0,0,0,.55469.09375.704.704,0,0,1,.57031.07226l.08008.05079a2.35963,2.35963,0,0,1,.64649.5332,1.203,1.203,0,0,0,.45214.34082l.082-.01465a.56383.56383,0,0,1,.65917.46484l.042.13965a2.33287,2.33287,0,0,1,.127.60547,1.75111,1.75111,0,0,1-.30566,1.17481,2.18818,2.18818,0,0,0-.14356.2207.72809.72809,0,0,1-.26758.30273.68816.68816,0,0,0-.26172.39746l-.0371.09864a2.10338,2.10338,0,0,1-.17481.38867.47544.47544,0,0,1-.28613.23926,1.96454,1.96454,0,0,1-.00293.33886.95052.95052,0,0,0,.01465.34668,1.245,1.245,0,0,1,.00879.73243.4993.4993,0,0,0-.02247.2666.43111.43111,0,0,1-.09082.3916.34194.34194,0,0,0-.06933.30469.59543.59543,0,0,1-.11426.54394l-.01367.05567a1.13569,1.13569,0,0,1-.2207.42968.20682.20682,0,0,0-.03809.17774.41107.41107,0,0,1-.28613.499.24859.24859,0,0,0-.06446.02735.2.2,0,0,1-.04882.21582.35386.35386,0,0,1-.27149.11132,2.79506,2.79506,0,0,0-.65625.083c-.00293.00293-.0459.02246-.085.041-.04883.02148-.09277.041-.10645.0459l-.00683.002a.27906.27906,0,0,1-.09863.19922.308.308,0,0,1-.332.03808c-.04589-.02246-.05859-.02636-.19531.08985-.03027.02539-.06054.05078-.09179.07422a1.06617,1.06617,0,0,1-.19532.1582.11739.11739,0,0,0-.05859.06738.43125.43125,0,0,1-.13965.22168c-.00391.04395-.00976.083-.01562.11719a.52211.52211,0,0,0-.00879.06543.64011.64011,0,0,0,.05859.32422.74085.74085,0,0,1,.03125.5332.66866.66866,0,0,0-.02148.125.3965.3965,0,0,1-.17481.31836.64572.64572,0,0,0-.23437.4541,1.611,1.611,0,0,1-.501.915c-.127.11523-.15332.18164-.15332.252v.07129l-.04492.08789c-.042.07227-.082.15528-.12207.23926a1.93913,1.93913,0,0,1-.42481.63672.59154.59154,0,0,1-.59765.11816.266.266,0,0,0-.11524.01368.47493.47493,0,0,1-.16894.00976.59922.59922,0,0,1-.01856.15527.43539.43539,0,0,1,.33692.5586.90457.90457,0,0,1-.11914.29492.3177.3177,0,0,0-.06055.13281.44179.44179,0,0,1-.24707.37012,1.92017,1.92017,0,0,1-.67091.23047l-.1289.02637c-.085.01855-.19238.04882-.29394.07812q-.04395.01172-.085.02344a.72766.72766,0,0,1-.02344.14941l-.25977.03321.249.02929a.30523.30523,0,0,1,.11035.293.40589.40589,0,0,1-.22949.29981.88693.88693,0,0,1-.16114.06836.39624.39624,0,0,1,.09864.12793,1.4353,1.4353,0,0,1,.082.20019.35736.35736,0,0,1-.04688.32227.3234.3234,0,0,1-.26269.13086.78739.78739,0,0,1-.125.11035.47717.47717,0,0,1,.08594.46191.31214.31214,0,0,1-.03907.21094.35969.35969,0,0,1-.30859.1582c-.10254.02149-.14063.06445-.15039.14942a.88448.88448,0,0,0,.32617.2041.48639.48639,0,0,1,.542.51172v.001a.3185.3185,0,0,1,.03614.19922.35233.35233,0,0,1-.16114.24121.50919.50919,0,0,0-.05664.05664q-.03516.03956-.07325.07617c-.10351.09571-.09179.13965-.06054.207a.41059.41059,0,0,1,.00879.33691.41816.41816,0,0,1-.27051.22852l.10059.08593a2.28011,2.28011,0,0,0,.2959.31348.35661.35661,0,0,1,.14258.25488l.01953.01953c.03711.03809.07519.07715.10351.1084a2.00226,2.00226,0,0,0,.957.60352.42372.42372,0,0,0,.081.00683l.06641.00391a.31521.31521,0,0,1,.31933.2959.32293.32293,0,0,1-.30762.35156l-.09667.01172c-.07227.00977-.14551.01855-.21778.02246-.02051.00391-.0791.02441-.14551.04688a1.30615,1.30615,0,0,1-.56543.1123A.31235.31235,0,0,1,21.72656,36.249Zm-.06054-.124h0Zm.35449-.0625-.00391.00684Zm-.25586-.28613.00781.00683Zm.12793-.11719.07422.05762a1.85346,1.85346,0,0,0,.17968-.04688,2.53389,2.53389,0,0,1-.74707-.581c-.02246-.02539-.05175-.05567-.08105-.085a.52752.52752,0,0,1-.1875-.29395,3.06607,3.06607,0,0,1-.29883-.32519l-.06738-.08008a.52242.52242,0,0,1-.123-.4834.45813.45813,0,0,1,.2461-.28809.63574.63574,0,0,1,.21-.69433c.03906-.042.06933-.0752.09765-.10254a.44273.44273,0,0,1-.00293-.0918,1.12984,1.12984,0,0,1-.84277-.58594.48576.48576,0,0,1-.02246-.19433.65365.65365,0,0,1,.458-.56836l.06933-.08789c-.00781-.001-.0166-.01856-.02246-.03223a1.14049,1.14049,0,0,1-.04492-.11035.45749.45749,0,0,1,.15332-.53223l-.04981-.02343a.49667.49667,0,0,1-.27441-.23047c-.02832-.0586-.05372-.11914-.07812-.17871a1.91279,1.91279,0,0,0-.09571-.209.31664.31664,0,0,1,.02637-.37207.3062.3062,0,0,1,.374-.06152c.04688.02051.09571.03613.14356.05176l.11719.041a.345.345,0,0,0,.21093.02246.44229.44229,0,0,1-.042-.23828.84114.84114,0,0,1,.02246-.12988l-.10254-.11719.14063-.33105.14355-.01954a2.659,2.659,0,0,0,.27735-.07128c.11132-.03125.22949-.06446.32226-.085l.1377-.02832a1.4759,1.4759,0,0,0,.5-.16113c.01172-.00781.02051-.00879.01953-.00781a.784.784,0,0,1,.1289-.333.444.444,0,0,0,.0586-.13672.51672.51672,0,0,1-.332-.58008.99266.99266,0,0,0-.1836-.11718l-.30566-.165.01367-.20313a.29742.29742,0,0,1,.30274-.21582.82735.82735,0,0,0,.08984-.01269.55733.55733,0,0,1,.36328.06054c.06641.03028.10059.04786.13477.06543a.40211.40211,0,0,0,.14746.05664.67035.67035,0,0,1,.39062.00293.0922.0922,0,0,0,.09766-.01757,1.52869,1.52869,0,0,0,.30859-.48243c.03809-.08007.07715-.16015.11914-.2373a.84879.84879,0,0,1,.31641-.56738,1.13152,1.13152,0,0,0,.3457-.64356,1.15532,1.15532,0,0,1,.40332-.73926,1.43956,1.43956,0,0,1,.03028-.16992c.02539-.10937.03125-.15234.00683-.20215a1.14452,1.14452,0,0,1-.1084-.57617,1.13113,1.13113,0,0,1,.01465-.11523.45737.45737,0,0,0,.00977-.09961l-.06836-.14942.11719-.14355a.27541.27541,0,0,1,.13964-.083.61684.61684,0,0,1,.26368-.28515.39458.39458,0,0,0,.05468-.0459.99279.99279,0,0,1,.084-.07422l.07226-.0586a.75408.75408,0,0,1,.47754-.21972h.00391a.43777.43777,0,0,1,.27148-.1875l.09961-.04c.06739-.03125.14356-.06348.165-.06934a3.33331,3.33331,0,0,1,.64356-.0957.48209.48209,0,0,1,.3125-.3125.70659.70659,0,0,1,.16113-.55273.65775.65775,0,0,0,.12012-.249.39945.39945,0,0,1,.11914-.24121c.0039-.00391.01367-.01269-.00489-.11426a.83874.83874,0,0,1,.16895-.71191.80842.80842,0,0,1,.02148-.47754.75884.75884,0,0,0-.001-.44531,1.37563,1.37563,0,0,1-.03907-.53711,1.28022,1.28022,0,0,0,.00293-.2666.79911.79911,0,0,1-.00488-.11035.42534.42534,0,0,1,.14551-.32618.35329.35329,0,0,1,.21191-.09277,1.78551,1.78551,0,0,0,.13868-.30859l.03906-.10547a1.1402,1.1402,0,0,1,.4873-.65528.48666.48666,0,0,0,.06153-.09277,3.35049,3.35049,0,0,1,.19238-.2959,1.2473,1.2473,0,0,0,.2041-.85254,1.93282,1.93282,0,0,0-.10547-.47949l-.04394-.14941a.27765.27765,0,0,0-.04-.09864h0a.34236.34236,0,0,0-.11035-.002.56206.56206,0,0,1-.32422-.0332,1.67185,1.67185,0,0,1-.63282-.48633,1.94893,1.94893,0,0,0-.5205-.417l-.082-.05274a.20714.20714,0,0,0-.17481-.00879,1.24,1.24,0,0,1-.85254-.10742c-.19336-.08984-.22851-.0957-.28223-.06445a.38473.38473,0,0,1-.29394.01465.41987.41987,0,0,1-.248-.21875l-.03711-.082c-.02148-.04786-.042-.09473-.06445-.13965a.46.46,0,0,1-.18359-.05957c-.17969-.09864-.36426-.18067-.54981-.26367l-.13574-.06055-.0625.01269c-.19044.042-.37109.08008-.49707-.05761l-.09668-.1045.01074-.05273a.42828.42828,0,0,1-.376-.2334.334.334,0,0,1-.23438-.36328l.0166-.08887c.04688-.19238.03418-.252.02637-.26855a.67712.67712,0,0,1-.23633-.27832L23.58789,10.54a1.9502,1.9502,0,0,1-.126-.39063q-.11426.21681-.23632.42969a.38907.38907,0,0,1-.47754.17383c-.03516-.01074-.08106-.03613-.10254-.02344a.30826.30826,0,0,1-.44336-.42187.40715.40715,0,0,0,.04394-.14746,1.389,1.389,0,0,1,.044-.18164.7394.7394,0,0,1-.13574-.4336.79744.79744,0,0,1,.10254-.44238.92521.92521,0,0,0-.33887.03027.74483.74483,0,0,1-.34766-.01172.38047.38047,0,0,0-.11816-.01562l-.2207.0625-.09766-.23535c-.01074-.03418-.06348-.07227-.10547-.10254l-.05469-.042a.77211.77211,0,0,1-.37207-.51465.59675.59675,0,0,0-.19726-.18653l-.0791-.06054c-.1045-.082-.126-.0918-.16309-.08106a.35135.35135,0,0,1-.35547-.09863.35878.35878,0,0,1-.05176-.37988l.001-.002A1.62428,1.62428,0,0,0,19.5752,7.374a.52556.52556,0,0,1-.43555-.27148c-.03613-.07422-.06153-.07715-.083-.07422-.18359.00195-.21.00684-.25879.06641a.53234.53234,0,0,1-.41015.1914.60316.60316,0,0,1-.52051-.21777c-.02149-.02539-.02735-.02539-.06153-.02246-.06933.00879-.13867.02148-.207.03418-.07519.01367-.15039.02637-.22558.03711A.40968.40968,0,0,1,17.05273,7.04a.37719.37719,0,0,1-.13574-.27832.21363.21363,0,0,0-.01953-.09082h0a.76039.76039,0,0,1-.29492-.05274.49844.49844,0,0,1-.26465.14356.41685.41685,0,0,0-.20117.09668.30736.30736,0,0,1-.34863.085.28521.28521,0,0,1-.165-.25586.69432.69432,0,0,1-.04688-.12793.87252.87252,0,0,0-.084.06152.38331.38331,0,0,1-.374.10254c-.00683.00293-.04882.02539-.07714.04a.60635.60635,0,0,1-.34864.09473.504.504,0,0,0-.16211.39355.32864.32864,0,0,1-.146.28223L14.23,7.33789l.15332.19727a1.06829,1.06829,0,0,1-.51514.17773.958.958,0,0,0-.23291.05371,1.37133,1.37133,0,0,1-.13134.05762c-.01319.00586-.02637.00976-.03809.01465.00293.01074.00537.02929.01025.05566l.0337.19824.00585.041a.92059.92059,0,0,1,.2627.60547c.00732.05176.01367.10449.02588.15527l.0376.15723-.08789.0791.00927.05762a1.80312,1.80312,0,0,1,.01221.33691.86786.86786,0,0,1-.019.12988.38348.38348,0,0,1,.0039.40625c-.03027.05078-.061.10743-.09033.16407a.73806.73806,0,0,1-.41992.43261.29813.29813,0,0,1-.03467.13575.31864.31864,0,0,1-.07129.08984.29882.29882,0,0,1-.00732.10351.36964.36964,0,0,1-.22363.23926l-.22266.09375a.62075.62075,0,0,1-.15772.44629.46491.46491,0,0,1-.14013.31738l.00488.03028a.91306.91306,0,0,1,.01074.34472.43023.43023,0,0,1,.189.25391c.1665.28613.0376.43066-.02442.48145-.38427.31445-.39209.33984-.21.68359a.33772.33772,0,0,1,.03858.27344,1.14034,1.14034,0,0,1,.52539.54492,2.411,2.411,0,0,0,.21924.36719,1.60151,1.60151,0,0,1,.12255.21c.06055.12695.11573.25683.1709.38574a3.9068,3.9068,0,0,0,.49268.91992.52594.52594,0,0,1,.09717.23633c.0581.084.09619.13379.13379.18359a.91683.91683,0,0,1,.24707.668,1.43105,1.43105,0,0,0,.51367.57129,4.48415,4.48415,0,0,0,.92773.52149,1.31033,1.31033,0,0,1,.52149.38281,1.49251,1.49251,0,0,0,.29785.27246l.07129.05469a.43315.43315,0,0,1,.18359.30761,3.58755,3.58755,0,0,0,.083.45313,4.42067,4.42067,0,0,1,.08887.4668l.02832.209a3.44977,3.44977,0,0,1,.05078.64453.56.56,0,0,1-.07715.3125.29965.29965,0,0,1,.0625.21094,1.36941,1.36941,0,0,0,.05957.53125.36482.36482,0,0,1-.04883.38867.74046.74046,0,0,1,.06055.51172.50076.50076,0,0,0,.002.0625.75961.75961,0,0,1-.00488.17969,1.07672,1.07672,0,0,0-.00684.18652,1.1275,1.1275,0,0,1-.05761.43262.68627.68627,0,0,1,.05175.749c.03516.0791.05274.15137.07813.20117a2.734,2.734,0,0,1,.23144.86133c.0127.08106.02539.16309.04.24414l.0166.09277-.05371.13477a.401.401,0,0,0-.001.22656.85272.85272,0,0,1-.01368.3545,2.30839,2.30839,0,0,0-.06445.584l-.00488.14746a.34378.34378,0,0,1-.08106.22461l.00782.02051a2.24169,2.24169,0,0,0,.249.501.63816.63816,0,0,1,.11523.55274.56557.56557,0,0,0,.07129.53613.28156.28156,0,0,1,.24317-.0332.32329.32329,0,0,1,.22851.21l.03028.00586.11816.30566-.042.05371a.82949.82949,0,0,1,.05176.30371.313.313,0,0,0,.02148.14258l.1377.17481-.07422.0957a.337.337,0,0,1,.01855.31543.3464.3464,0,0,1-.1416.16895l.04.20117-.18945.19726a.29113.29113,0,0,1,.00586.07715l-.002.02149.01953.01855c.01172.01367.02539.01758.07618.02637a.32574.32574,0,0,1,.27832.10937l.07519.08692-.00781.16015a.78412.78412,0,0,1-.20606.49317c.00489.02832.00782.05468.00977.07519a1.006,1.006,0,0,0,.166.30078,1.5972,1.5972,0,0,1,.23632.40918l.00879.02637a.35336.35336,0,0,1,.18262.12988c.02832.01856.28418.16114.36621.2041l.10938.05665.03906.14062a.26465.26465,0,0,1-.00684.125c.0127.02149.02246.042.03028.05859l.002.00782a.33456.33456,0,0,1,.1543.10547.31839.31839,0,0,1,.24023.12109l.10938.15723-.01563.01953a.28706.28706,0,0,1,.00586.16113.41247.41247,0,0,1,.05371.041.33346.33346,0,0,1,.11231.10156l.01269-.002a.38606.38606,0,0,1,.23828.03515.28963.28963,0,0,1,.0625.04688l.02246-.01856.20117.06348.15137.09961-.0039.0166a.31789.31789,0,0,1,.19921.09766l.05469.06542a.28415.28415,0,0,1,.04688.02637,1.35013,1.35013,0,0,0,.17871.0752.2348.2348,0,0,1,.10254-.01172l.13476.03613ZM19.81934,35.415a.1637.1637,0,0,0,.03808.03711Zm.28515-.30078.002.02441.00293-.0039a.16234.16234,0,0,0-.002-.03028Zm-.625-.17285.002.001Zm.18164-.35743-.01172.00293Zm-.92773-.36328.002.002Zm2.52832-1.33593.001.00195Zm-3.126-.94141h0Zm.00879-.18457.00293.00293Zm-.335-.19531-.001.00879Zm.55078-.207-.00293.00878Zm-.46387-.18555-.002.00781Zm.56348-.0332-.01465.01855A.04776.04776,0,0,0,18.46,31.1377Zm-.123-.7334-.01757.02246A.12743.12743,0,0,0,18.33691,30.4043Zm-.708-.06836a.07365.07365,0,0,0,.01464,0Zm-.1377-.14258.001.001Zm-.3418-1.91113h0Zm8.02832-4.19629-.002.001Zm.10352-1.46485a.13721.13721,0,0,0-.043.05274l.25391.03125Zm-8.49414.05567-.001.001Zm8.63867-.09278.00488.002ZM12.27246,12.165l-.00537.002Zm12.22168-.77149.001.001ZM12.667,11.17871l.00049.001Zm.32422-.21875-.002.001Zm.06885-.27148.00146.00195Zm9.25049-.7627v0ZM13.71289,9.168l-.0083.00781Zm6.11328-1.6582h0Zm-5.7959-.25391v0Zm1.97461-1.00977-.00586.001Z"/>
            </g>
        </g>
    </g>
</svg>